<!DOCTYPE svg PUBLIC "-//W3C//DTD SVG 1.1//EN" "http://www.w3.org/Graphics/SVG/1.1/DTD/svg11.dtd">
<!-- Uploaded to: SVG Repo, www.svgrepo.com, Transformed by: SVG Repo Mixer Tools -->
<svg width="212px" height="212px" viewBox="0 0 512 512" id="Layer_1" version="1.1" xml:space="preserve" xmlns="http://www.w3.org/2000/svg" xmlns:xlink="http://www.w3.org/1999/xlink" fill="#000000" transform="matrix(-1, 0, 0, 1, 0, 0)">
<g id="SVGRepo_bgCarrier" stroke-width="0"/>
<g id="SVGRepo_tracerCarrier" stroke-linecap="round" stroke-linejoin="round"/>
<g id="SVGRepo_iconCarrier"> <style type="text/css"> .st0{fill:#3B4652;} .st1{fill:#2B79C2;} </style> <g> <path class="st0" d="M476.8,258.4c-3.2-4.3-8-6.7-13.3-6.7c-0.1,0-0.1,0-0.2,0L256,253.6l-9.7-33.9c-0.9-3-3.6-5.1-6.8-5.1 l-24.4,0.2l0.1-0.2l-98.8-57.4c-4.2-2.4-8.7-3.5-13.1-3.5c-10.6,0-20.7,6.4-24.7,17.2c-1.1,2.9-1.6,5.9-1.6,8.8 c-0.1,12.3,8.6,23.7,21.5,26.1l42.5,9l68.3,14.4l0.3-0.8c0.8,0.3,1.7,0.5,2.7,0.5l22-0.2l9.7,33.9c0,0,0,0,0,0l27.5,96.4 c-4.2,1.4-8.1,3.8-11.3,7.1c-5.3,5.5-8.2,12.7-8.2,20.3c0.1,15.7,12.9,28.3,28.6,28.3c0.1,0,0.2,0,0.3,0l8-0.1 c-0.1,0.9-0.1,1.7-0.1,2.6c0.1,7.2,2.9,13.9,8,18.9c5,5,11.7,7.7,18.8,7.7c0.1,0,0.2,0,0.3,0c14.8-0.1,26.7-12.3,26.5-27 c0-0.9-0.1-1.7-0.2-2.6l42.5-0.4c-0.1,0.9-0.1,1.7-0.1,2.6c0.1,7.2,2.9,13.9,8,18.9c5,5,11.7,7.7,18.8,7.7c0.1,0,0.2,0,0.3,0 c14.8-0.1,26.7-12.3,26.5-27c0-0.9-0.1-1.7-0.2-2.6l23.1-0.2c3.9,0,7-3.2,6.9-7.1c0-3.9-3.2-7-7.1-6.9l-128.2,1.2c0,0,0,0,0,0 l-34.6,0.3c0,0,0,0,0,0l-17.3,0.2c-8.1,0.1-14.6-6.4-14.7-14.4c0-3.9,1.4-7.6,4.2-10.3c2.7-2.8,6.4-4.3,10.3-4.4l165.7-1.5 c0,0,0,0,0,0l14.4-0.1c3.9,0,7-3.2,6.9-7.1c0-3.8-3.2-6.9-7-6.9c0,0,0,0-0.1,0l-5,0l24-82.7C480.9,268,480,262.7,476.8,258.4z M450.9,284.9l-16.3,56.1c-0.9,3.1-3.7,5.1-6.7,5.1c-0.6,0-1.3-0.1-2-0.3c-3.7-1.1-5.9-5-4.8-8.7l16.3-56.1c1.1-3.7,5-5.9,8.7-4.8 C449.8,277.3,451.9,281.1,450.9,284.9z"/> <circle class="st1" cx="134.6" cy="108.7" r="40.3"/> <polygon class="st1" points="31.9,436.7 46.7,436.7 85.2,340.2 50.9,322.8 "/> <path class="st0" d="M119.9,283l17-54.8l-41.1-8.7c-9.5-1.8-17.8-6.8-23.6-13.9l-9.2,50l-9.7,52.8l37.1,18.8l49.3,24.9l18.2,84.6 h17l-7.8-97.4L119.9,283z"/> </g> </g>
</svg>